<svg data-name="logo" xmlns="http://www.w3.org/2000/svg" width="149.2" height="24.6" viewBox="0 0 149.2 24.6">
    <path data-name="Fill 1" d="M26.342 23.2v-1.95h.037a16.141 16.141 0 0 0 1.869-.091 4.621 4.621 0 0 0 1.1-.261l.023-.008a2.905 2.905 0 0 0 .842-.42 2.468 2.468 0 0 0 .529-.549 4.343 4.343 0 0 0 .373-.652l.182-.393.162-.349-.776-.008-7.154-14.484h2.634l6.023 12.92 5.7-12.878h2.664l-6.781 14.485-.381.785c-.189.407-.369.767-.548 1.1a5.05 5.05 0 0 1-.65.942 4.321 4.321 0 0 1-.877.759 5.035 5.035 0 0 1-1.2.569 6.978 6.978 0 0 1-1.487.358 17.908 17.908 0 0 1-2.284.125zM81.6 19.166h-2V4.539h2v14.625zm-6.508 0h-2.064v-7.81c0-.746-.006-1.782-.018-2.294a7.873 7.873 0 0 0-.118-1.272 1.954 1.954 0 0 0-.281-.743 1.126 1.126 0 0 0-.516-.39 3.472 3.472 0 0 0-.991-.21 18.973 18.973 0 0 0-1.586-.056h-3.364c-.619 0-1.151.019-1.581.056a3.43 3.43 0 0 0-.99.21 1.146 1.146 0 0 0-.518.392 1.98 1.98 0 0 0-.288.742 7.529 7.529 0 0 0-.117 1.269 139.01 139.01 0 0 0-.015 2.3v7.8h-2.07l.006-7.8c0-.691.01-1.746.027-2.316a8.965 8.965 0 0 1 .179-1.584 3.991 3.991 0 0 1 .5-1.282 2.812 2.812 0 0 1 1.01-.939 5.07 5.07 0 0 1 1.582-.528 13.068 13.068 0 0 1 2.273-.168h3.365a13.068 13.068 0 0 1 2.273.168 5.085 5.085 0 0 1 1.583.528 2.839 2.839 0 0 1 1.012.938 3.949 3.949 0 0 1 .507 1.282 8.691 8.691 0 0 1 .175 1.586c.015.565.023 1.614.023 2.314v7.809zm-23.1 0h-3.364a12.908 12.908 0 0 1-2.273-.171 4.987 4.987 0 0 1-1.583-.535 2.832 2.832 0 0 1-1.014-.948 4.018 4.018 0 0 1-.507-1.3 8.81 8.81 0 0 1-.175-1.6 278.74 278.74 0 0 1-.023-3.64V4.539h2.069v6.434c0 .793.006 3.109.019 3.621a7.981 7.981 0 0 0 .117 1.283 1.989 1.989 0 0 0 .281.751 1.11 1.11 0 0 0 .516.393 3.441 3.441 0 0 0 .99.212c.424.038.957.057 1.584.057H52c.621 0 1.153-.019 1.581-.057a3.412 3.412 0 0 0 .989-.212 1.142 1.142 0 0 0 .517-.394 1.994 1.994 0 0 0 .288-.752 7.48 7.48 0 0 0 .116-1.28c.01-.536.015-2.9.015-3.622l-.008-6.405h2.072v6.405c0 .713-.009 3.073-.026 3.642a9.163 9.163 0 0 1-.179 1.6 4.035 4.035 0 0 1-.5 1.294 2.8 2.8 0 0 1-1.012.949 4.982 4.982 0 0 1-1.583.535 12.888 12.888 0 0 1-2.27.173zm-38.312 0H8.344a19.972 19.972 0 0 1-3.52-.263 7.5 7.5 0 0 1-2.355-.795 4.013 4.013 0 0 1-1.43-1.338 5.835 5.835 0 0 1-.735-1.9 13.606 13.606 0 0 1-.268-2.456C.012 11.511 0 10.491 0 9.387V0h2.279v9.387c0 1.168.01 2.186.03 3.026a13.281 13.281 0 0 0 .2 2.132 3.671 3.671 0 0 0 .527 1.393 2.3 2.3 0 0 0 1.039.807 5.9 5.9 0 0 0 1.715.373c.7.061 1.559.092 2.558.092h5.34c.99 0 1.849-.031 2.552-.092a5.846 5.846 0 0 0 1.715-.373 2.352 2.352 0 0 0 1.039-.807 3.7 3.7 0 0 0 .54-1.393 12.519 12.519 0 0 0 .2-2.132c.016-.89.024-1.908.024-3.026L19.737 0h2.29v9.387c0 1.123-.014 2.143-.042 3.031a13.749 13.749 0 0 1-.273 2.456 5.912 5.912 0 0 1-.73 1.9 3.954 3.954 0 0 1-1.423 1.338 7.508 7.508 0 0 1-2.359.788 19.966 19.966 0 0 1-3.516.266zM81.6 2.018h-2V0h2v2.017z" transform="translate(26.4)" style="fill:#fff"/>
    <!-- <text transform="translate(115.2 9.6)" style="font-size:13px;font-family:Roboto-Regular,Roboto;fill:#fff"><tspan x="0" y="12">Suite</tspan></text> -->
    <path data-name="Fill 4" d="M17.084 19.2a2.053 2.053 0 0 1-1.492-.644 2.212 2.212 0 0 1-.6-1.31l-.011-.011a6.478 6.478 0 0 0-1.761-3.664 5.989 5.989 0 0 0-3.512-1.785l-.01-.01a2.059 2.059 0 0 1-1.209-.616 2.259 2.259 0 0 1-.459-2.389 2.177 2.177 0 0 1 .47-.731 2.05 2.05 0 0 1 1.26-.622l.022-.013a5.826 5.826 0 0 0 3.464-1.759 6.462 6.462 0 0 0 1.743-3.662L15 1.972a2.21 2.21 0 0 1 .6-1.328 2.051 2.051 0 0 1 2.984 0 2.266 2.266 0 0 1 0 3.11 2.046 2.046 0 0 1-1.258.621l-.01.01A6.04 6.04 0 0 0 13.8 6.22a6.371 6.371 0 0 0-1.672 3.406A6.173 6.173 0 0 0 13.775 13a6.021 6.021 0 0 0 3.515 1.816l.011.011a2.054 2.054 0 0 1 1.274.623 2.266 2.266 0 0 1 0 3.109 2.053 2.053 0 0 1-1.491.641zm-7.384 0a2.053 2.053 0 0 1-1.491-.644 2.213 2.213 0 0 1-.6-1.31l-.01-.011a6.49 6.49 0 0 0-1.759-3.664 5.99 5.99 0 0 0-3.512-1.785l-.009-.01a2.06 2.06 0 0 1-1.21-.616 2.262 2.262 0 0 1-.458-2.39 2.18 2.18 0 0 1 .464-.73 2.049 2.049 0 0 1 1.26-.622l.025-.013a5.822 5.822 0 0 0 3.464-1.76A6.469 6.469 0 0 0 7.6 1.984l.01-.012a2.215 2.215 0 0 1 .6-1.328 2.053 2.053 0 0 1 2.985 0 2.268 2.268 0 0 1 0 3.11 2.051 2.051 0 0 1-1.259.621l-.01.01A6.041 6.041 0 0 0 6.412 6.22a6.355 6.355 0 0 0-1.671 3.4A6.153 6.153 0 0 0 6.391 13a6.021 6.021 0 0 0 3.515 1.816l.012.011a2.057 2.057 0 0 1 1.273.623 2.265 2.265 0 0 1 0 3.109A2.055 2.055 0 0 1 9.7 19.2zm-7.484 0a2.215 2.215 0 1 1 2.215-2.215A2.218 2.218 0 0 1 2.216 19.2zm14.769-6.892a2.215 2.215 0 1 1 2.215-2.215 2.218 2.218 0 0 1-2.215 2.215zM2.216 4.431a2.215 2.215 0 1 1 2.215-2.216 2.218 2.218 0 0 1-2.215 2.216z" style="fill:#fff"/>
</svg>
