<svg width="180" height="27" viewBox="0 0 180 27" fill="none" xmlns="http://www.w3.org/2000/svg">
<path d="M32.4412 19.931H43.0293L43.7915 21.3881C44.8638 23.439 46.9866 24.7241 49.3009 24.7241H51.2479C51.4646 24.7241 51.6035 24.4942 51.5031 24.3024L42.3986 6.95745C41.7671 5.75441 40.7527 4.75058 39.4707 4.30002C36.9627 3.41836 34.3302 4.55992 33.1777 6.7563L23.7455 24.7245H26.1699C28.4834 24.7245 30.6059 23.4398 31.6782 21.3897L32.4412 19.931ZM37.735 9.80982L40.417 14.9364H35.0542L37.735 9.80982Z" fill="white"/>
<path d="M13.4841 12.2081L21.3396 5.16958C21.798 4.75871 21.5077 4 20.8926 4H17.2706C15.452 4 13.6969 4.67078 12.3421 5.88394L5.4495 12.0556V4.70424C5.4495 4.21555 5.17792 4.08015 4.96548 4.04825C2.18587 4.29726 0 6.60491 0 9.44833V24.7272H5.4495V19.405L9.38974 15.8756L14.3723 21.836C15.9018 23.6658 18.1643 24.7237 20.5494 24.7237H23.785L13.4841 12.2081Z" fill="white"/>
<path d="M78.119 19.5888H90.585V17.6921H87.1132C83.6627 17.6921 83.9929 19.5888 83.9929 19.5888L77.5892 19.915C77.5892 19.915 77.5892 19.0858 77.5892 18.2626C77.5892 14.4674 81.9511 13.174 85.9447 13.174H89.4436C89.4436 12.7282 89.57 11.9869 87.1132 11.9869C84.6565 11.9869 82.9389 11.9869 82.9389 11.9869C80.3698 11.9869 78.2724 10.4808 77.9576 8.04331C78.0598 7.51 78.7129 7.42285 78.7129 7.42285H86.7079C92.4225 7.42285 96.2139 10.4573 96.2139 14.4674V24.5382H82.6008C79.9284 24.5382 77.7633 22.4936 77.5892 19.915C77.6505 19.6752 77.9134 19.6061 78.119 19.5888Z" fill="white"/>
<path fill-rule="evenodd" clip-rule="evenodd" d="M51.3458 19.966V16.6602V8.96081C51.3458 6.25591 53.5122 4.0572 56.2045 4.00448C56.2067 4.00349 56.2079 4.00298 56.2079 4.00298C56.9037 4.00201 56.9287 4.00121 56.9462 4.00066C56.9688 3.99993 56.9788 3.99962 58.4239 3.99986C62.1192 4.00047 65.682 4.0047 65.8374 4.01504C71.1225 4.36675 75.307 9.02766 75.307 14.3515C75.307 19.8088 70.9094 24.588 65.436 24.7187L56.3564 24.7207C53.6604 24.7211 51.4792 22.6152 51.3459 19.9752H51.3458V19.9731C51.3457 19.9718 51.3456 19.9705 51.3456 19.9691C51.3456 19.9681 51.3457 19.9671 51.3458 19.966ZM56.7953 19.7284C59.3749 19.7288 62.0544 19.7294 63.4798 19.7296C64.0931 19.7298 64.4742 19.7298 64.5154 19.7298C67.4458 19.7298 69.8209 17.2593 69.8209 14.3542C69.8209 11.5351 67.5835 9.13075 64.7728 8.9977C64.6873 8.99198 58.4771 8.99469 56.7953 8.99553V19.277V19.7284Z" fill="white"/>
<path fill-rule="evenodd" clip-rule="evenodd" d="M105.859 19.8302V24.7239H100.41V16.7737V9.00495C100.41 6.27518 102.577 4.05634 105.27 4.00392C105.271 4.0033 105.272 4.00298 105.272 4.00298C105.968 4.00201 105.993 4.00121 106.01 4.00066C106.033 3.99993 106.043 3.99962 107.488 3.99986C111.183 4.00047 113.605 4.0047 113.76 4.01504C121.518 4.01504 123.23 8.56385 123.23 11.9869C123.23 17.0389 118.832 19.6976 113.359 19.8283L105.859 19.8302ZM105.859 14.8381C108.096 14.8385 110.312 14.839 111.517 14.8393C112.06 14.8394 112.397 14.8394 112.438 14.8394C115.369 14.8394 117.744 14.1836 117.744 11.9869C117.744 10.2754 116.384 8.9977 112.696 8.9977C112.611 8.99205 107.388 8.99462 105.859 8.9955V14.8381Z" fill="white"/>
<path d="M134.795 23.6318C132.482 23.6318 130.768 23.178 129.655 22.2704C128.552 21.3537 128 20.1058 128 18.5266C128 16.8747 128.59 15.4952 129.771 14.3879C130.952 13.2807 132.491 12.7271 134.389 12.7271C135.337 12.7271 136.204 12.7997 136.988 12.9449L136.436 15.3954C135.952 15.2774 135.352 15.2184 134.635 15.2184C133.532 15.2184 132.69 15.4997 132.109 16.0624C131.538 16.6252 131.252 17.3603 131.252 18.2679C131.252 19.0575 131.523 19.6883 132.066 20.1602C132.608 20.6322 133.488 20.8681 134.708 20.8681C134.969 20.8681 135.226 20.85 135.478 20.8137L134.795 23.6318Z" fill="white"/>
<path d="M137.055 23.5909L139.248 12.8632H142.34L140.685 20.909H144.373C144.305 21.6441 144.005 22.2749 143.473 22.8013C142.95 23.3277 142.2 23.5909 141.222 23.5909H137.055Z" fill="white"/>
<path d="M151.373 12.7271C152.971 12.7271 154.268 13.2126 155.265 14.1837C156.262 15.1458 156.76 16.3756 156.76 17.8731C156.76 19.5158 156.155 20.9044 154.945 22.0389C153.745 23.1643 152.254 23.7271 150.473 23.7271C148.876 23.7271 147.574 23.246 146.567 22.284C145.561 21.3129 145.057 20.0785 145.057 18.581C145.057 16.9383 145.662 15.5542 146.872 14.4288C148.082 13.2943 149.583 12.7271 151.373 12.7271ZM151.141 15.3954C150.231 15.3954 149.529 15.7039 149.036 16.3211C148.552 16.9292 148.31 17.6961 148.31 18.6219C148.31 19.3752 148.518 19.9696 148.934 20.4053C149.36 20.8409 149.946 21.0587 150.691 21.0587C151.591 21.0587 152.283 20.7547 152.767 20.1466C153.261 19.5294 153.508 18.758 153.508 17.8322C153.508 17.088 153.295 16.4981 152.869 16.0624C152.453 15.6177 151.877 15.3954 151.141 15.3954Z" fill="white"/>
<path d="M168.939 12.8632L167.603 19.3978C167.022 22.2658 165.342 23.6998 162.564 23.6998C161.132 23.6998 160.038 23.4094 159.283 22.8285C158.528 22.2477 158.15 21.4717 158.15 20.5006C158.15 19.9832 158.242 19.2662 158.426 18.3496L159.544 12.8632H162.637L161.432 18.7308C161.325 19.2299 161.272 19.5884 161.272 19.8063C161.272 20.1965 161.403 20.487 161.664 20.6775C161.926 20.8681 162.274 20.9634 162.71 20.9634C163.242 20.9634 163.653 20.8091 163.944 20.5006C164.234 20.1829 164.457 19.652 164.612 18.9077L165.846 12.8632H168.939Z" fill="white"/>
<path d="M174.337 12.8632C175.141 12.8632 175.872 12.9585 176.53 13.1491C177.188 13.3397 177.725 13.5938 178.141 13.9115C178.567 14.22 178.921 14.5831 179.201 15.0006C179.492 15.409 179.695 15.8265 179.811 16.253C179.937 16.6705 180 17.0971 180 17.5327C180 18.0047 179.937 18.4903 179.811 18.9894C179.685 19.4795 179.443 20.0105 179.085 20.5822C178.727 21.145 178.277 21.6441 177.735 22.0798C177.193 22.5063 176.457 22.8648 175.528 23.1553C174.608 23.4457 173.563 23.5909 172.392 23.5909H169.299L171.491 12.8632H174.337ZM174.7 15.3818H174.076L172.958 20.8409H173.466C174.55 20.8409 175.359 20.5323 175.891 19.9152C176.433 19.2889 176.704 18.5084 176.704 17.5736C176.704 16.8929 176.506 16.3574 176.109 15.9672C175.712 15.5769 175.242 15.3818 174.7 15.3818Z" fill="white"/>
</svg>
