<svg xmlns="http://www.w3.org/2000/svg" width="179.854" height="27.099" viewBox="0 0 179.854 27.099">
  <g id="그룹_156373" data-name="그룹 156373" transform="translate(-55.081 -26.672)">
    <path id="Fill_1" data-name="Fill 1" d="M28.972,25.328h0V23.2h.041a18.232,18.232,0,0,0,2.055-.1,5.138,5.138,0,0,0,1.208-.285l.026-.009a3.206,3.206,0,0,0,.926-.459,2.708,2.708,0,0,0,.582-.6,4.689,4.689,0,0,0,.409-.712l.379-.81-.853-.01L25.878,4.4h2.9L35.4,18.511,41.672,4.452H44.6L37.141,20.264l-.419.856c-.2.43-.4.834-.6,1.2A5.478,5.478,0,0,1,35.4,23.35a4.744,4.744,0,0,1-.963.829,5.558,5.558,0,0,1-1.324.62,7.7,7.7,0,0,1-1.635.391A19.868,19.868,0,0,1,28.972,25.328Zm60.776-4.405h-2.2V4.955h2.2V20.922Zm-7.159,0H80.32V12.4c0-.82-.007-1.943-.021-2.5A8.4,8.4,0,0,0,80.17,8.5a2.134,2.134,0,0,0-.309-.813,1.228,1.228,0,0,0-.568-.424,3.809,3.809,0,0,0-1.089-.23c-.463-.04-1.049-.06-1.743-.06h-3.7c-.688,0-1.274.02-1.739.06a3.8,3.8,0,0,0-1.088.229,1.262,1.262,0,0,0-.571.428,2.164,2.164,0,0,0-.316.812,7.934,7.934,0,0,0-.128,1.385c-.012.555-.017,1.688-.017,2.505l0,8.511H66.622l.007-8.511c0-.754.011-1.906.03-2.528a9.778,9.778,0,0,1,.2-1.728,4.327,4.327,0,0,1,.552-1.4,3.074,3.074,0,0,1,1.11-1.025,5.61,5.61,0,0,1,1.74-.577,14.476,14.476,0,0,1,2.5-.183h3.7a14.492,14.492,0,0,1,2.5.183,5.609,5.609,0,0,1,1.74.577,3.091,3.091,0,0,1,1.112,1.024,4.261,4.261,0,0,1,.558,1.4,9.4,9.4,0,0,1,.193,1.731c.016.6.025,1.724.025,2.525v8.525Zm-25.4,0h-3.7a14.32,14.32,0,0,1-2.5-.186,5.518,5.518,0,0,1-1.74-.584,3.1,3.1,0,0,1-1.115-1.035,4.357,4.357,0,0,1-.558-1.413,9.551,9.551,0,0,1-.192-1.751c-.017-.635-.025-3.263-.025-3.974V4.955h2.275v7.024c0,.867.006,3.394.021,3.952a8.774,8.774,0,0,0,.129,1.4,2.158,2.158,0,0,0,.309.82,1.222,1.222,0,0,0,.568.429,3.773,3.773,0,0,0,1.088.231c.459.041,1.045.061,1.742.061h3.7c.691,0,1.276-.021,1.739-.061a3.755,3.755,0,0,0,1.088-.231,1.247,1.247,0,0,0,.568-.431,2.154,2.154,0,0,0,.316-.82,8.179,8.179,0,0,0,.129-1.4c.011-.585.017-3.167.017-3.954l-.01-6.993h2.284v6.993c0,.778-.01,3.354-.029,3.976a9.933,9.933,0,0,1-.2,1.749,4.376,4.376,0,0,1-.553,1.412,3.053,3.053,0,0,1-1.112,1.036,5.507,5.507,0,0,1-1.741.584A14.275,14.275,0,0,1,57.187,20.923Zm-42.138,0H9.176a22.04,22.04,0,0,1-3.87-.287,8.276,8.276,0,0,1-2.592-.866,4.41,4.41,0,0,1-1.572-1.461,6.358,6.358,0,0,1-.81-2.069,14.84,14.84,0,0,1-.294-2.682C.013,12.566,0,11.452,0,10.248V0H2.506V10.248c0,1.333.011,2.413.033,3.3a14.411,14.411,0,0,0,.215,2.328,3.994,3.994,0,0,0,.581,1.52,2.528,2.528,0,0,0,1.143.882,6.517,6.517,0,0,0,1.886.406c.761.066,1.708.1,2.813.1H15.05c1.1,0,2.04-.034,2.808-.1a6.456,6.456,0,0,0,1.885-.406,2.582,2.582,0,0,0,1.143-.882,4,4,0,0,0,.594-1.52,13.566,13.566,0,0,0,.215-2.328c.018-.972.027-2.083.027-3.3L21.708,0h2.518V10.248c0,1.225-.016,2.339-.047,3.309a15,15,0,0,1-.3,2.682,6.488,6.488,0,0,1-.8,2.069,4.345,4.345,0,0,1-1.566,1.461,8.272,8.272,0,0,1-2.591.866A22.063,22.063,0,0,1,15.05,20.923ZM89.748,2.2h-2.2V0h2.2V2.2Z" transform="translate(87.562 27.672)" fill="#fff"/>
    <path id="Fill_4" data-name="Fill 4" d="M2.722,22.328a2.58,2.58,0,1,1,0-5.153,2.58,2.58,0,1,1,0,5.153Zm18.267,0a2.594,2.594,0,0,1-1.833-.749,2.513,2.513,0,0,1-.732-1.524l-.013-.012a7.377,7.377,0,0,0-2.163-4.261,7.516,7.516,0,0,0-4.315-2.074l-.012-.012a2.564,2.564,0,0,1-1.485-.716,2.551,2.551,0,0,1,.007-3.629,2.576,2.576,0,0,1,1.549-.722l.026-.015a7.306,7.306,0,0,0,4.256-2.046,7.358,7.358,0,0,0,2.141-4.258l.014-.014A2.507,2.507,0,0,1,19.163.748a2.619,2.619,0,0,1,3.666,0,2.537,2.537,0,0,1,0,3.617,2.576,2.576,0,0,1-1.546.721l-.012.011a7.574,7.574,0,0,0-4.32,2.135,7.256,7.256,0,0,0-2.054,3.96,7.035,7.035,0,0,0,2.027,3.921,7.538,7.538,0,0,0,4.319,2.112l.014.013a2.576,2.576,0,0,1,1.566.723,2.535,2.535,0,0,1,0,3.616A2.594,2.594,0,0,1,20.989,22.328Zm-9.073,0a2.593,2.593,0,0,1-1.833-.749,2.513,2.513,0,0,1-.732-1.524l-.012-.012a7.389,7.389,0,0,0-2.165-4.261A7.511,7.511,0,0,0,2.86,13.707l-.011-.012a2.579,2.579,0,0,1-1.486-.716,2.549,2.549,0,0,1,.008-3.629,2.569,2.569,0,0,1,1.548-.722l.027-.015A7.307,7.307,0,0,0,7.2,6.565,7.366,7.366,0,0,0,9.343,2.307l.013-.014A2.508,2.508,0,0,1,10.09.748a2.62,2.62,0,0,1,3.667,0,2.537,2.537,0,0,1,0,3.617,2.577,2.577,0,0,1-1.546.721L12.2,5.1A7.581,7.581,0,0,0,7.878,7.233a7.246,7.246,0,0,0-2.053,3.959,7.021,7.021,0,0,0,2.027,3.922,7.538,7.538,0,0,0,4.319,2.112l.014.013a2.57,2.57,0,0,1,1.564.723,2.533,2.533,0,0,1,0,3.616A2.593,2.593,0,0,1,11.916,22.328Zm8.95-8.015a2.654,2.654,0,0,1-2.721-2.576,2.726,2.726,0,0,1,5.444,0A2.656,2.656,0,0,1,20.866,14.313ZM2.722,5.153A2.655,2.655,0,0,1,0,2.576,2.655,2.655,0,0,1,2.722,0,2.655,2.655,0,0,1,5.444,2.576,2.655,2.655,0,0,1,2.722,5.153Z" transform="translate(55.081 26.672)" fill="#04abfc"/>
    <text id="Ent." transform="translate(185.936 48.771)" fill="#fff" font-size="18" font-family="NotoSansCJKkr-Regular, Noto Sans CJK KR"><tspan x="0" y="0">Suite.</tspan></text>
  </g>
</svg>