<svg xmlns="http://www.w3.org/2000/svg" width="24" height="24" viewBox="0 0 24 24">
    <g fill="none" fill-rule="evenodd">
        <path fill="#07B4FC" d="M2.25 0a2.25 2.25 0 1 0 0 4.5 2.25 2.25 0 0 0 0-4.5zm13.592.654a2.254 2.254 0 0 0-.607 1.348l-.011.013a6.565 6.565 0 0 1-1.771 3.72A5.889 5.889 0 0 1 9.935 7.52l-.022.013a2.09 2.09 0 0 0-1.28.631c-.211.219-.368.473-.473.744a2.3 2.3 0 0 0 .467 2.426c.345.36.78.563 1.228.626l.01.01a6.058 6.058 0 0 1 3.567 1.812 6.602 6.602 0 0 1 1.788 3.721l.01.011c.053.486.249.958.606 1.331a2.083 2.083 0 0 0 3.03 0 2.3 2.3 0 0 0 0-3.158 2.092 2.092 0 0 0-1.294-.632l-.01-.011c-1.298-.174-2.575-.807-3.572-1.845-.935-.976-1.475-2.164-1.675-3.425.206-1.26.766-2.487 1.698-3.458.995-1.036 2.276-1.69 3.57-1.864l.01-.01a2.09 2.09 0 0 0 1.28-.631 2.3 2.3 0 0 0 0-3.158A2.095 2.095 0 0 0 17.356 0c-.549 0-1.097.218-1.515.654zm-7.501 0a2.257 2.257 0 0 0-.607 1.349l-.01.012a6.567 6.567 0 0 1-1.77 3.72A5.89 5.89 0 0 1 2.434 7.52l-.022.013a2.09 2.09 0 0 0-1.28.631c-.21.218-.368.472-.472.742a2.301 2.301 0 0 0 .466 2.428c.345.36.78.562 1.228.626l.01.01a6.057 6.057 0 0 1 3.566 1.812 6.604 6.604 0 0 1 1.79 3.721l.01.011c.052.486.247.958.605 1.331a2.083 2.083 0 0 0 3.03 0 2.299 2.299 0 0 0 0-3.158 2.092 2.092 0 0 0-1.293-.632l-.012-.011c-1.297-.174-2.574-.807-3.57-1.845-.937-.976-1.476-2.164-1.676-3.425.205-1.26.766-2.487 1.698-3.458.995-1.036 2.276-1.69 3.571-1.864l.01-.01c.467-.055.92-.258 1.278-.631a2.3 2.3 0 0 0 0-3.158A2.095 2.095 0 0 0 9.857 0C9.308 0 8.76.218 8.341.654zM15 10.25a2.25 2.25 0 1 0 4.5 0 2.25 2.25 0 0 0-4.5 0zm-15 7a2.25 2.25 0 1 0 4.5 0 2.25 2.25 0 0 0-4.5 0z"/>
    </g>
</svg>
