<svg width="24" height="22" viewBox="0 0 24 22" fill="none" xmlns="http://www.w3.org/2000/svg">
<path d="M0 10.6895C0 10.6895 1.67775 9.76892 4.74303 9.74925L7.05446 8.11182C7.05446 8.11182 3.72257 8.23919 2.38613 9.10229C1.04962 9.96533 0 10.6895 0 10.6895Z" fill="url(#paint0_linear_3780_31449)"/>
<path d="M21.1605 8.4873L18.6207 10.11C18.7616 10.1573 18.9431 10.1985 19.0722 10.2331L21.6132 8.60951C21.4839 8.57991 21.3012 8.53893 21.1605 8.4873Z" fill="#2E4787"/>
<path d="M20.8299 8.33625C20.7511 8.30461 20.6535 8.25952 20.5392 8.2041L17.9708 9.84516C18.1178 9.90069 18.2582 9.95106 18.393 9.99621L20.9328 8.37349C20.8983 8.36086 20.8649 8.35037 20.8299 8.33625Z" fill="#002D73"/>
<path d="M7.05444 8.11165L5.86322 8.95547C5.86322 8.95547 9.16775 6.62389 13.3261 8.02355C15.3109 8.69155 16.6935 9.33506 17.7432 9.7314L20.3116 8.09034C18.5364 7.23037 12.6182 3.83856 7.05444 8.11165Z" fill="url(#paint1_linear_3780_31449)"/>
<path d="M21.8442 8.72314L19.3032 10.3467C19.5213 10.4051 19.7237 10.4441 19.9144 10.4608L22.5166 8.79823C22.317 8.80015 22.0921 8.77994 21.8442 8.72314Z" fill="#4F5E98"/>
<path d="M22.9215 8.79871L20.3193 10.4613C20.7507 10.4991 21.216 10.4225 21.5745 10.1896C22.9141 9.31951 23.9999 8.57764 23.9999 8.57764C23.9999 8.57764 23.5376 8.79272 22.9215 8.79871Z" fill="#868DB7"/>
<path d="M6.62669 15.1196H8.57099L8.71095 15.3872C8.90786 15.7638 9.29768 15.9997 9.72265 15.9997H10.0802C10.12 15.9997 10.1455 15.9575 10.127 15.9223L8.45517 12.7372C8.33921 12.5163 8.15295 12.332 7.91753 12.2492C7.45698 12.0873 6.97356 12.297 6.76194 12.7003L5.02991 15.9998H5.4751C5.89992 15.9998 6.28967 15.7639 6.48658 15.3874L6.62669 15.1196ZM7.5988 13.261L8.09129 14.2024H7.10653L7.5988 13.261Z" fill="#001F5F"/>
<path d="M3.14552 13.7011L4.58804 12.4086C4.67221 12.3332 4.61891 12.1938 4.50595 12.1938H3.84085C3.5069 12.1938 3.1846 12.317 2.93582 12.5398L1.67013 13.6731V12.3232C1.67013 12.2334 1.62026 12.2086 1.58125 12.2027C1.07083 12.2484 0.669434 12.6722 0.669434 13.1943V16H1.67013V15.0227L2.39368 14.3746L3.30863 15.4691C3.58949 15.8051 4.00496 15.9994 4.44293 15.9994H5.03709L3.14552 13.7011Z" fill="#001F5F"/>
<path d="M15.0146 15.0568H17.3037V14.7085H16.6662C16.0326 14.7085 16.0932 15.0568 16.0932 15.0568L14.9173 15.1167C14.9173 15.1167 14.9173 14.9644 14.9173 14.8133C14.9173 14.1163 15.7183 13.8788 16.4516 13.8788H17.0941C17.0941 13.797 17.1173 13.6609 16.6662 13.6609C16.2151 13.6609 15.8996 13.6609 15.8996 13.6609C15.4279 13.6609 15.0427 13.3843 14.9849 12.9367C15.0037 12.8388 15.1236 12.8228 15.1236 12.8228H16.5918C17.6411 12.8228 18.3373 13.38 18.3373 14.1163V15.9657H15.8376C15.3468 15.9657 14.9493 15.5902 14.9173 15.1167C14.9285 15.0727 14.9768 15.06 15.0146 15.0568Z" fill="#001F5F"/>
<path fill-rule="evenodd" clip-rule="evenodd" d="M10.0982 15.1259V14.5185V13.1047C10.0982 12.6079 10.4962 12.204 10.9908 12.1946C10.991 12.1945 10.9911 12.1944 10.9911 12.1944C10.9941 12.1944 10.9971 12.1944 11 12.1944C11.0029 12.1944 11.0058 12.1944 11.0086 12.1944C11.0093 12.1944 11.01 12.1944 11.0107 12.1944C11.1193 12.1942 11.1236 12.1941 11.1266 12.194C11.1308 12.1939 11.1326 12.1938 11.398 12.1939C12.0766 12.194 12.7308 12.1948 12.7593 12.1967C13.7299 12.2612 14.4982 13.1171 14.4982 14.0947C14.4982 15.0969 13.6907 15.9745 12.6856 15.9985L11.0183 15.9988C10.5232 15.9989 10.1227 15.6121 10.0983 15.1273H10.0982V15.1268C10.0982 15.1267 10.0982 15.1265 10.0982 15.1263C10.0982 15.1262 10.0982 15.126 10.0982 15.1259ZM11.0989 15.0821C11.5726 15.0822 12.0647 15.0823 12.3264 15.0823C12.439 15.0824 12.509 15.0824 12.5166 15.0824C13.0547 15.0824 13.4908 14.6287 13.4908 14.0952C13.4908 13.5776 13.08 13.1361 12.5639 13.1116C12.5482 13.1106 11.4078 13.1111 11.0989 13.1112V14.9991V15.0821Z" fill="#001F5F"/>
<path fill-rule="evenodd" clip-rule="evenodd" d="M19.1078 14.2276V13.1129C19.1078 12.6116 19.5058 12.2041 20.0004 12.1946C20.0006 12.1945 20.0007 12.1944 20.0007 12.1944C20.0037 12.1944 20.0067 12.1944 20.0097 12.1944C20.0125 12.1944 20.0154 12.1944 20.0182 12.1944C20.0189 12.1944 20.0196 12.1944 20.0203 12.1944C20.1289 12.1942 20.1332 12.1941 20.1362 12.194C20.1404 12.1939 20.1422 12.1938 20.4076 12.1939C21.0862 12.194 21.5309 12.1948 21.5594 12.1967C22.984 12.1967 23.2983 13.032 23.2983 13.6605C23.2983 14.5882 22.4908 15.0765 21.4857 15.1005L20.1085 15.1008V15.9994H19.1078V14.5395V14.2292C19.1078 14.2289 19.1078 14.2286 19.1078 14.2283C19.1078 14.2281 19.1078 14.2278 19.1078 14.2276ZM20.1085 14.1841C20.5193 14.1842 20.9262 14.1843 21.1474 14.1843C21.2471 14.1843 21.3091 14.1843 21.3166 14.1843C21.8548 14.1843 22.2909 14.0639 22.2909 13.6605C22.2909 13.3462 22.0411 13.1116 21.3639 13.1116C21.3484 13.1106 20.3893 13.1111 20.1085 13.1112V14.1841Z" fill="#001F5F"/>
<defs>
<linearGradient id="paint0_linear_3780_31449" x1="-1.45402" y1="11.0091" x2="5.29295" y2="8.80701" gradientUnits="userSpaceOnUse">
<stop stop-color="#01566C"/>
<stop offset="1" stop-color="#00C1DE"/>
</linearGradient>
<linearGradient id="paint1_linear_3780_31449" x1="6.798" y1="7.64976" x2="17.5935" y2="7.91742" gradientUnits="userSpaceOnUse">
<stop stop-color="#448FBF"/>
<stop offset="0.1362" stop-color="#3976A2"/>
<stop offset="0.3398" stop-color="#2E587F"/>
<stop offset="0.5343" stop-color="#244369"/>
<stop offset="0.7144" stop-color="#1D355B"/>
<stop offset="0.8751" stop-color="#1A2D53"/>
<stop offset="1" stop-color="#1A2A51"/>
</linearGradient>
</defs>
</svg>
